<svg id="Component_2_2" data-name="Component 2 – 2" xmlns="http://www.w3.org/2000/svg" xmlns:xlink="http://www.w3.org/1999/xlink" width="560" height="442.982" viewBox="0 0 560 442.982">
  <defs>
    <linearGradient id="linear-gradient" x1="0.5" y1="1" x2="0.5" gradientUnits="objectBoundingBox">
      <stop offset="0" stop-color="gray" stop-opacity="0.251"/>
      <stop offset="0.535" stop-color="gray" stop-opacity="0.122"/>
      <stop offset="1" stop-color="gray" stop-opacity="0.102"/>
    </linearGradient>
  </defs>
  <g id="undraw_Hello_qnas">
    <path id="Path_17" data-name="Path 17" d="M229.911,628.876c0,23.713-14.1,31.994-31.486,31.994-.4,0-.808,0-1.208-.015-.805-.018-1.6-.053-2.392-.109-15.695-1.109-27.889-9.817-27.889-31.869,0-22.82,29.158-51.617,31.357-53.755l0,0c.083-.083.127-.125.127-.125S229.911,605.16,229.911,628.876Z" transform="translate(-157.956 -313.376)" fill="#3f3d56"/>
    <path id="Path_18" data-name="Path 18" d="M213.329,657.241l11.517-16.091L213.3,659.007l-.031,1.847c-.805-.018-1.6-.053-2.392-.109l1.241-23.724-.009-.184.022-.035.116-2.241-11.574-17.9,11.609,16.222.028.475.939-17.925-9.909-18.5,10.029,15.349.976-37.161,0-.127v.125l-.162,29.3,9.863-11.618-9.9,14.141-.26,16.05,9.211-15.4-9.25,17.765-.144,8.922,13.371-21.439L213.653,637.4Z" transform="translate(-174.008 -313.376)" fill="#f2f2f2"/>
    <g id="Group_25" data-name="Group 25" transform="translate(408.601 143.577)" opacity="0.7">
      <path id="Path_19" data-name="Path 19" d="M957.867,355.513V349.8H929.312v26.413a5.568,5.568,0,0,0,5.568,5.568H952.3a5.568,5.568,0,0,0,5.568-5.568v-5.854a7.424,7.424,0,0,0,0-14.849Zm0,11.993v-9.138a4.569,4.569,0,0,1,0,9.138Z" transform="translate(-929.312 -349.802)" fill="url(#linear-gradient)"/>
    </g>
    <path id="Path_20" data-name="Path 20" d="M975.882,362.4a6.779,6.779,0,1,0,6.779,6.779A6.779,6.779,0,0,0,975.882,362.4Zm0,10.95a4.171,4.171,0,1,1,4.172-4.171,4.171,4.171,0,0,1-4.172,4.171Z" transform="translate(-539.645 -212.22)" fill="#dc4b4c"/>
    <path id="Path_21" data-name="Path 21" d="M975.882,362.4a6.779,6.779,0,1,0,6.779,6.779A6.779,6.779,0,0,0,975.882,362.4Zm0,10.95a4.171,4.171,0,1,1,4.172-4.171,4.171,4.171,0,0,1-4.172,4.171Z" transform="translate(-539.645 -212.22)" opacity="0.1"/>
    <path id="Path_22" data-name="Path 22" d="M782.493,276.563h26.072v24.09a5.111,5.111,0,0,1-5.111,5.111H787.6a5.111,5.111,0,0,1-5.111-5.111Z" transform="translate(-372.328 -131.595)" fill="#dc4b4c"/>
    <path id="Path_23" data-name="Path 23" d="M968.467,352.455v24.116a5.084,5.084,0,0,1-5.084,5.084h2.607a5.084,5.084,0,0,0,5.084-5.084V352.455Z" transform="translate(-536.923 -207.487)" opacity="0.1"/>
    <path id="Path_24" data-name="Path 24" d="M940.978,314.767a1.522,1.522,0,0,0-1.151.585c-.342.62.278,1.319.843,1.745a11.218,11.218,0,0,1,2.856,2.659,3.333,3.333,0,0,1,.157,3.684c-1.014,1.375-3.432,1.67-3.666,3.362-.15,1.086.789,2.013,1.74,2.558,2.349,1.345,5.376,1.7,7.077,3.809a5.486,5.486,0,0,1,3.847-2.641c1.569-.357,3.2-.331,4.79-.573a1.656,1.656,0,0,0,1.322-.7c.445-.9-.823-1.985-.385-2.891.333-.69,1.311-.636,2.025-.912a2.637,2.637,0,0,0,1.312-3.148,5.928,5.928,0,0,0-2.243-2.912,25.119,25.119,0,0,0-9.032-4.175,23.155,23.155,0,0,0-4.8-1.111A23.989,23.989,0,0,0,940.978,314.767Z" transform="translate(-525.667 -189.237)" fill="#eee"/>
    <line id="Line_6" data-name="Line 6" x1="54.514" y2="169.833" transform="translate(177.806 180.325)" fill="none" stroke="#e0e0e0" stroke-miterlimit="10" stroke-width="8"/>
    <g id="Group_26" data-name="Group 26" transform="translate(100.314 0)" opacity="0.7">
      <path id="Path_25" data-name="Path 25" d="M515.421,445.179c-6.706.389-12.68,6.006-12.68,6.006l-2.889-7.166-.236.077c1.411-6.177,30.122-133.518,1.381-144.5-22.085-8.436-45.511-18.875-63.865-18.482V251.035h25.731v-1.072h20.371c3.9-2.789-1.769-4.707-8.111-5.906a5.794,5.794,0,0,0,.68-.959l32.626-58.535s7.5-12.33,2.68-18.226-11.794,15.01-11.794,15.01l-26.8,38.6s-27.052-28.2-44.261-42.218a30.125,30.125,0,0,0-6.406-4.842c-3.141-2.125-5.519-3.227-6.692-2.795-.012,0-.022.012-.034.016a30.03,30.03,0,0,0-8.008-1.089h-2.144v-4.4a34.39,34.39,0,0,0,21.243-20.129,38.629,38.629,0,0,0,3.061-33.635,2.232,2.232,0,0,0,.9-.313c.971-.625,1.067-1.992.973-3.143a23.879,23.879,0,0,0-12.12-18.671c-2.716-1.485-5.827-2.508-7.829-4.869-1.721-2.028-2.444-4.865-4.527-6.52-2.474-1.966-6.048-1.628-9.084-.751a33.054,33.054,0,0,0-9.481,4.474c-3.284,2.249-6.247,5.139-10.028,6.383-2.686.885-5.6.867-8.3,1.7a13.945,13.945,0,0,0-8.972,8.751,18.215,18.215,0,0,0-.768,6.84,38.381,38.381,0,0,0-3.851,8.76c-.2.109-.406.216-.606.329l.588-.264a38.589,38.589,0,0,0,10.872,39.36,34.361,34.361,0,0,0,16.486,11.7v5.321a40.536,40.536,0,0,0-13.157,5.388l-.006-.007s-.342.212-.928.606l-.176.119c-3.967,2.692-17.259,12.53-16.81,23.16q-.026.613.007,1.23a40.868,40.868,0,0,0-1.095,9.374v77.143a37.885,37.885,0,0,0,8.131,23.5c-11.187,2.507-18.316,6.3-18.316,10.543a3.433,3.433,0,0,1,0,1.072c0,7.55,22.56,13.67,50.39,13.67,3.365,0,6.652-.09,9.832-.261l31.445,25.456-50.39,80.946s-16.618,12.866-3.753,17.154,39.133,7.5,39.133,7.5,4.289-7.5-1.608-10.721-13.938-1.608-13.938-1.608l1.072-6.433s87.379-75.049,69.153-100.781c-3.487-4.923-6.974-10-10.491-15l13.755,1.254,3.13,117.813.391-.127c-.786,2.314-6.343,19.782,5.975,16.826,13.187-3.164,37.181-14.327,37.181-14.327S522.127,444.79,515.421,445.179Zm-52.557-202.72-25.731-7.47V212.975L465.1,242.663C463.725,242.525,462.864,242.458,462.864,242.458Z" transform="translate(-341.177 -75.892)" fill="url(#linear-gradient)"/>
    </g>
    <circle id="Ellipse_4" data-name="Ellipse 4" cx="37.741" cy="37.741" r="37.741" transform="translate(115.429 14.161)"/>
    <path id="Path_26" data-name="Path 26" d="M503.526,301.76l28.8,30.574a5.627,5.627,0,0,0,9.011-1.119l31.9-57.237-8.911-3.145-26.209,37.741s-49.2-51.284-56.087-48.748S503.526,301.76,503.526,301.76Z" transform="translate(-307.374 -163.369)" fill="#dc4b4c"/>
    <line id="Line_7" data-name="Line 7" x1="42.458" y2="110.077" transform="translate(98.655 244.275)" fill="none" stroke="#bdbdbd" stroke-miterlimit="10" stroke-width="5"/>
    <line id="Line_8" data-name="Line 8" x2="42.458" y2="110.077" transform="translate(162.08 244.275)" fill="none" stroke="#bdbdbd" stroke-miterlimit="10" stroke-width="5"/>
    <ellipse id="Ellipse_5" data-name="Ellipse 5" cx="49.273" cy="13.367" rx="49.273" ry="13.367" transform="translate(102.324 231.695)" fill="#b84733"/>
    <ellipse id="Ellipse_6" data-name="Ellipse 6" cx="49.273" cy="13.367" rx="49.273" ry="13.367" transform="translate(102.324 230.646)" fill="#f55f44"/>
    <line id="Line_9" data-name="Line 9" x2="46.489" y2="14.325" transform="translate(130.864 268.46)" fill="none" stroke="#bdbdbd" stroke-miterlimit="10" stroke-width="5"/>
    <line id="Line_10" data-name="Line 10" x1="46.489" y2="14.325" transform="translate(125.841 268.46)" fill="none" stroke="#bdbdbd" stroke-miterlimit="10" stroke-width="5"/>
    <path id="Path_27" data-name="Path 27" d="M254.1,182.016h14.627a29.354,29.354,0,0,1,29.354,29.354v77.578H214.209V221.9A39.887,39.887,0,0,1,254.1,182.016Z" transform="translate(-101.926 -86.607)" fill="#dc4b4c"/>
    <path id="Path_28" data-name="Path 28" d="M214.209,386.016h83.868v45.6H251.426A37.217,37.217,0,0,1,214.209,394.4Z" transform="translate(-101.926 -183.675)" fill="#39447a"/>
    <path id="Path_29" data-name="Path 29" d="M366.1,295.927l51.285,48.728h56.611v-7.338l-48.749-14.153-41.7-51.5S364.61,283.367,366.1,295.927Z" transform="translate(-252.681 -169.047)" opacity="0.05"/>
    <path id="Path_30" data-name="Path 30" d="M366.1,293.927l51.285,48.728h56.611v-7.338l-48.749-14.153-41.7-51.5S364.61,281.367,366.1,293.927Z" transform="translate(-252.681 -168.095)" fill="#dc4b4c"/>
    <path id="Path_31" data-name="Path 31" d="M572.012,394.909s27.257,2.1,19.919,7.338H572.012Z" transform="translate(-350.7 -227.687)" fill="#fda57d"/>
    <path id="Path_32" data-name="Path 32" d="M640.012,266.655s6.814-20.443,11.532-14.677-2.621,17.822-2.621,17.822Z" transform="translate(-383.056 -159.19)" fill="#fda57d"/>
    <path id="Path_33" data-name="Path 33" d="M214.209,386.016v2.446l83.868.174v-2.621Z" transform="translate(-101.925 -183.675)" opacity="0.05"/>
    <path id="Path_34" data-name="Path 34" d="M482.638,512.843l56.416,5.141,3.061,115.2,20.2-6.575s30.206-130.519,1.4-141.521-59.939-25.489-78.528-13.682S482.638,512.843,482.638,512.843Z" transform="translate(-305.114 -261.992)" fill="#39447a"/>
    <path id="Path_35" data-name="Path 35" d="M495.012,486.908s30.926,15.725,35.12,33.547" transform="translate(-314.062 -271.463)" opacity="0.1"/>
    <path id="Path_36" data-name="Path 36" d="M427.255,517.926l44.03,35.644-49.273,79.151,20.443,5.766S527.9,565.1,510.074,539.942s-35.644-54.514-57.66-55.039S427.255,517.926,427.255,517.926Z" transform="translate(-279.327 -270.506)" fill="#39447a"/>
    <path id="Path_37" data-name="Path 37" d="M414.209,251.016l11.008,18.87,2.621-5.242Z" transform="translate(-197.09 -119.439)" opacity="0.05"/>
    <path id="Path_38" data-name="Path 38" d="M414.346,766.909s-16.25,12.58-3.669,16.774,38.265,7.339,38.265,7.339,4.193-7.339-1.573-10.484-13.629-1.573-13.629-1.573l1.048-6.29Z" transform="translate(-271.66 -404.694)" fill="#333"/>
    <path id="Path_39" data-name="Path 39" d="M601.046,777.416s-7.138,19.795,5.757,16.7,36.357-14.009,36.357-14.009-.322-8.446-6.879-8.066-12.4,5.873-12.4,5.873l-2.825-7.007Z" transform="translate(-363.577 -406.597)" fill="#333"/>
    <rect id="Rectangle_33" data-name="Rectangle 33" width="20.967" height="31.451" rx="10.484" transform="translate(143.734 77.063)" fill="#fda57d"/>
    <path id="Path_40" data-name="Path 40" d="M434.5,224.908a10.484,10.484,0,0,0-10.484,10.484v3.562a33.551,33.551,0,0,0,20.967,0v-3.562A10.484,10.484,0,0,0,434.5,224.908Z" transform="translate(-280.278 -146.798)" opacity="0.05"/>
    <circle id="Ellipse_7" data-name="Ellipse 7" cx="33.547" cy="33.547" r="33.547" transform="translate(120.67 25.693)" fill="#fda57d"/>
    <path id="Path_41" data-name="Path 41" d="M378.109,152.175s8.387,2.161,13.1-7.371,8.387-14.731,27.781-9.1,23.3,6.32,24.228.994c.637-3.64-6.259-12.48-10.691-17.714a12.41,12.41,0,0,0-9.46-4.077h-21.9l-13.1,6.066-9.959,8.666-2.1,11.7Z" transform="translate(-257.439 -94.457)" opacity="0.05"/>
    <path id="Path_42" data-name="Path 42" d="M378.109,150.175s8.387,2.161,13.1-7.371,8.387-14.731,27.781-9.1,23.3,6.32,24.228.994c.637-3.64-6.259-12.48-10.691-17.714a12.41,12.41,0,0,0-9.46-4.077h-21.9l-13.1,6.066-9.959,8.666-2.1,11.7Z" transform="translate(-257.439 -93.505)"/>
    <ellipse id="Ellipse_8" data-name="Ellipse 8" cx="3.407" cy="6.814" rx="3.407" ry="6.814" transform="translate(120.67 49.805)" fill="#fda57d"/>
    <path id="Path_43" data-name="Path 43" d="M377.115,118.926c-.777-4.388-1.541-9-.126-13.221a13.636,13.636,0,0,1,8.773-8.557c2.643-.813,5.492-.8,8.119-1.66,3.7-1.217,6.595-4.043,9.806-6.242a32.32,32.32,0,0,1,9.271-4.375c2.969-.858,6.463-1.188,8.882.734,2.036,1.618,2.743,4.392,4.426,6.375,1.958,2.308,5,3.309,7.656,4.761A23.349,23.349,0,0,1,445.774,115c.092,1.125,0,2.462-.952,3.073a3.4,3.4,0,0,1-1.912.349c-13.408-.192-26.832-.384-40.184-1.615a96.412,96.412,0,0,0-12.476-.708,40.809,40.809,0,0,0-18.37,5.183" transform="translate(-255.473 -79.84)"/>
    <rect id="Rectangle_34" data-name="Rectangle 34" width="80.768" height="34.369" rx="17.185" transform="translate(0 338.234)" fill="#dc4b4c"/>
    <path id="Path_44" data-name="Path 44" d="M724.99,485.648a.787.787,0,1,0-.759-.786A.787.787,0,0,0,724.99,485.648Z" transform="translate(-423.129 -270.115)" fill="url(#linear-gradient)"/>
    <line id="Line_11" data-name="Line 11" x2="54.514" y2="193.994" transform="translate(417.23 180.325)" fill="none" stroke="#e0e0e0" stroke-miterlimit="10" stroke-width="8"/>
    <rect id="Rectangle_35" data-name="Rectangle 35" width="294.381" height="11.472" transform="translate(177.585 174.644)" fill="#e0e0e0"/>
    <rect id="Rectangle_36" data-name="Rectangle 36" width="48.224" height="6.814" rx="3.407" transform="translate(250.142 171.939)" fill="#535461"/>
    <g id="Group_27" data-name="Group 27" transform="translate(279.496 95.965)" opacity="0.7">
      <rect id="Rectangle_37" data-name="Rectangle 37" width="119.858" height="82.873" rx="28.22" fill="url(#linear-gradient)"/>
    </g>
    <rect id="Rectangle_38" data-name="Rectangle 38" width="113.542" height="81.344" rx="26.835" transform="translate(281.633 97.494)" fill="#3e3f49"/>
    <rect id="Rectangle_39" data-name="Rectangle 39" width="113.542" height="81.344" rx="26.835" transform="translate(283.206 97.494)" fill="#535461"/>
    <circle id="Ellipse_9" data-name="Ellipse 9" cx="3.669" cy="3.669" r="3.669" transform="translate(341.611 133.936)" fill="#e0e0e0"/>
  </g>
  <g id="Component_1_1" data-name="Component 1 – 1" transform="translate(310 222.982)">
    <text id="Hi" transform="translate(0 160)" font-size="220" font-family="UtopiaStd-BlackHeadline, Utopia Std" font-weight="800" letter-spacing="0.05em"><tspan x="0" y="0">Hi</tspan></text>
  </g>
</svg>
