<svg id="Component_4_1" data-name="Component 4 – 1" xmlns="http://www.w3.org/2000/svg" width="750" height="585.525" viewBox="0 0 750 585.525">
  <text id="Work" transform="translate(152 525.525)" font-size="220" font-family="UtopiaStd-BlackHeadline, Utopia Std" font-weight="800" letter-spacing="0.05em"><tspan x="0" y="0">Work</tspan></text>
  <g id="undraw_work_in_progress_uhmv">
    <ellipse id="Ellipse_16" data-name="Ellipse 16" cx="56.316" cy="6.745" rx="56.316" ry="6.745" transform="translate(0.028 457.635)" fill="#e6e6e6"/>
    <rect id="Rectangle_56" data-name="Rectangle 56" width="515.928" height="330.423" transform="translate(147.061 0.292)" fill="#e6e6e6"/>
    <rect id="Rectangle_57" data-name="Rectangle 57" width="486.422" height="269.432" transform="translate(161.814 41.736)" fill="#fff"/>
    <rect id="Rectangle_58" data-name="Rectangle 58" width="515.928" height="21.919" transform="translate(146.841)" fill="#dc4b4c"/>
    <circle id="Ellipse_17" data-name="Ellipse 17" cx="4.062" cy="4.062" r="4.062" transform="translate(159.066 7.143)" fill="#fff"/>
    <circle id="Ellipse_18" data-name="Ellipse 18" cx="4.062" cy="4.062" r="4.062" transform="translate(174.486 7.143)" fill="#fff"/>
    <circle id="Ellipse_19" data-name="Ellipse 19" cx="4.062" cy="4.062" r="4.062" transform="translate(189.906 7.143)" fill="#fff"/>
    <path id="Path_65" data-name="Path 65" d="M742.4,281.894a3.921,3.921,0,0,0-.144.925Z" transform="translate(-304.143 -172.324)" fill="#7f77ff"/>
    <path id="Path_66" data-name="Path 66" d="M659.359,319.544c-.029-.677-.15-.96-.26-.994C659.179,319.178,659.253,319.694,659.359,319.544Z" transform="translate(-283.311 -181.507)" fill="#7f77ff"/>
    <path id="Path_67" data-name="Path 67" d="M657.73,338.945c-.022.293-.044.565-.081.895A1.409,1.409,0,0,1,657.73,338.945Z" transform="translate(-282.938 -186.616)" fill="#7f77ff"/>
    <path id="Path_68" data-name="Path 68" d="M742.128,283.128l-.381,2.376C742.142,285.67,742.04,284.286,742.128,283.128Z" transform="translate(-304.015 -172.633)" fill="#7f77ff"/>
    <path id="Path_69" data-name="Path 69" d="M770.88,253.424l.722,0a3.718,3.718,0,0,0,.6-.493Z" transform="translate(-311.314 -165.067)" fill="#7f77ff"/>
    <path id="Path_70" data-name="Path 70" d="M808.6,254.776a.855.855,0,0,1,.651-.706,4.662,4.662,0,0,0-.648-.73C808.255,253.3,808.624,254.326,808.6,254.776Z" transform="translate(-320.726 -165.17)" fill="#7f77ff"/>
    <path id="Path_71" data-name="Path 71" d="M848.169,228.306c.094-.014.184-.028.256-.043Z" transform="translate(-330.676 -158.888)" fill="#7f77ff"/>
    <path id="Path_72" data-name="Path 72" d="M847.381,228.419l.591-.1C847.776,228.35,847.553,228.381,847.381,228.419Z" transform="translate(-330.478 -158.903)" fill="#7f77ff"/>
    <path id="Path_73" data-name="Path 73" d="M740.523,256.835a.343.343,0,0,0-.368.168C740.284,257.087,740.406,257,740.523,256.835Z" transform="translate(-303.616 -166.044)" fill="#7f77ff"/>
    <path id="Path_74" data-name="Path 74" d="M896.326,229.863l.055.483a2.3,2.3,0,0,0,.577.1Z" transform="translate(-342.74 -159.289)" fill="#7f77ff"/>
    <path id="Path_75" data-name="Path 75" d="M654.614,362.1c.007,0,.007.007-.007.022s-.007.015-.015.022-.11.029-.191.044a.63.63,0,0,0-.125-.022c.11-.015.22-.037.308-.044C654.6,362.111,654.606,362.1,654.614,362.1Z" transform="translate(-282.103 -192.418)" fill="#7f77ff"/>
    <path id="Path_76" data-name="Path 76" d="M544.093,512.876c-2.89-.921,4.7-1.182.352-2.206C544.85,511.073,540.49,512.277,544.093,512.876Z" transform="translate(-254.14 -229.636)" fill="#7f77ff"/>
    <path id="Path_77" data-name="Path 77" d="M575.246,379.852a1.806,1.806,0,0,1-.455.653C575.011,380.021,575.136,379.874,575.246,379.852Z" transform="translate(-262.19 -196.864)" fill="#7f77ff"/>
    <path id="Path_78" data-name="Path 78" d="M632.093,364.926a7.218,7.218,0,0,1-1.181-.132Z" transform="translate(-276.249 -193.092)" fill="#7f77ff"/>
    <path id="Path_79" data-name="Path 79" d="M554.559,384.689a3.2,3.2,0,0,0-1.219,0,1.218,1.218,0,0,0,.266.125,1.849,1.849,0,0,1,.953-.126Z" transform="translate(-256.816 -198.061)" fill="#7f77ff"/>
    <path id="Path_80" data-name="Path 80" d="M554.966,384.709c.153.027.313.058.517.083A4,4,0,0,0,554.966,384.709Z" transform="translate(-257.224 -198.081)" fill="#7f77ff"/>
    <path id="Path_81" data-name="Path 81" d="M521.259,384.828c.136.079.317.138.476.208l.817-.055Z" transform="translate(-248.779 -198.11)" fill="#7f77ff"/>
    <path id="Path_82" data-name="Path 82" d="M549.793,385.752a.1.1,0,0,1-.059.081C549.764,385.788,549.793,385.752,549.793,385.752Z" transform="translate(-255.913 -198.342)" fill="#7f77ff"/>
    <path id="Path_83" data-name="Path 83" d="M890.54,511.6c-.166-.014-.331-.028-.513-.048C890.219,511.579,890.386,511.593,890.54,511.6Z" transform="translate(-341.162 -229.857)" fill="#7f77ff"/>
    <path id="Path_84" data-name="Path 84" d="M899.979,480.048c-.006,0-.012,0-.018,0C899.967,480.08,899.973,480.072,899.979,480.048Z" transform="translate(-343.651 -221.965)" fill="#7f77ff"/>
    <path id="Path_85" data-name="Path 85" d="M629.552,365.785a4.037,4.037,0,0,0,.77-.227C630.858,365.7,630.124,365.689,629.552,365.785Z" transform="translate(-275.909 -193.283)" fill="#7f77ff"/>
    <path id="Path_86" data-name="Path 86" d="M898.986,359.283c.04-.174.081-.369.13-.608C899.068,358.88,899.029,359.081,898.986,359.283Z" transform="translate(-343.406 -191.559)" fill="#7f77ff"/>
    <path id="Path_87" data-name="Path 87" d="M798.818,404.481a1.545,1.545,0,0,1,.33-.469l.1.367a6.63,6.63,0,0,0-.147-2.251,21.841,21.841,0,0,0,.279-2.955c.777-.418.418-4.194.462-6.013-1.027.147-.865-2.193-1.694-.059.059-.125.1.5.139,1.613a4.951,4.951,0,0,0,.11.777c-.029-.037-.059-.081-.1-.125.022,1.2.044,2.757.073,4.532a7.413,7.413,0,0,1-.4-4.964c-.66-.931-1.342-1.965-1.657-2.545,1.437-2.493,2.215-7.3,3.095-7.971-.572-5.566-.381-13.111-2.317-16.616-.249-1.584.557-1.819.865-2.413a13.351,13.351,0,0,0,.44,2.5c-.5-3.168-.191-9.379-1.547-10.134.609-3.989,1.247,2.244,1.027-3.241l.411.741c2.127-10.6-3.256-17.3-.807-28.877-.1.433-.183.689-.345.807,1.225-13.625-1.151-28.085.792-41.534.389-3.82-.469-4.238-1.129-6.57l1.107-.829-1.276-3.989c-.939-5.654,2.713-9.789.946-16.954l-.748.924c.147-2.574-.44-8.147.418-7.714a1.828,1.828,0,0,1-.381-1.848l.579-.081-1-6.321c.418-4.891,2.3.77,2.413-6.38-.22-2.655-1.687-7.56-2.075-6.563-.022,1.071-.359,2.735-.939,2.816l-.3-2.427c-.11-.029-.213-.059-.323-.1v-.389h-1.049a1.764,1.764,0,0,0-1.379,0H766.516l.286-.286-.865.286h-3.71c.11-.22.462-.4,1.2-.491-2.7-.755-2.391.543-4.7-.3-.257-.132-.147-.205.1-.264l-2.64.455c.521-.323-.433-1.078,1.181-.858-4.722-.88-7.619,1.144-9.4-.015l.4-.088c-4.906.381-2.831.814-3.534,1.562h-3.065l-.616-.513-.829-.689a5.842,5.842,0,0,0-.917-.689,8.681,8.681,0,0,0-.675,1.115c-.763-.037-2.332-.117-2.259-.572-1.342.389-1.063.506-.741.623.352.117.777.227.235.594a13.832,13.832,0,0,0-2.618-.359c-.1,1.628.022,3.6-.015,5.1-.037,1.569-.22,2.581-.939,2.9.851,1.166.66-3.117,1.254.359-1.921.975.323,4.062-.557,6.959-.99-.836-.462-3.71-1.349-.719a2.61,2.61,0,0,1,.6,1.041,3.265,3.265,0,0,1,.029,1.2,11.011,11.011,0,0,1-.594,2.061,3.617,3.617,0,0,0-1.327-.081c.44.667-.543.807-2.017.836-.887,0-1.907.007-2.948.007-1.093.015-2.215.044-3.271.154.264-.447-7.927-.726-11.843-1.21l.11-.227c-.755,1.349-4.8,1.093-7.744,1.371.117-.807.645-1.122,2.244-1.481l-2.772.007a6.845,6.845,0,0,1-3.307.814l.7-1.012c-1.841.029-3.7.33-5.683.535-1,.1-2.017.176-3.095.191-.535.007-1.085-.007-1.65-.037-.279-.015-.565-.037-.851-.066l-.968-.11c-.1.235.257.521.484.814a6.605,6.605,0,0,1,.763.924.639.639,0,0,1,.066.631h-2.567c.007-.279.176-.528.719-.66a5.536,5.536,0,0,1-2.325.154c.587-.279,1.269-.565,2.039-.851-2.786-.374-1.144.711-3.1.631-.4-.719-1.877-.513-2.039-1.085.55-.073,2.134.293,2.838.015-1.459-.073-3.182-.242-4.766-.477a6.241,6.241,0,0,1-.631,2.024c.411.037.975.726,1.063,2.611.029,2.413-.191,2.8-.462,2.955-.132.073-.279.081-.418.271a1.714,1.714,0,0,0-.2.418,2.95,2.95,0,0,0-.161.609c.5.895-.022,3.241,1.063,3.307-.007,1.078-.513,1.276-.807,1.694.477,1.907.139,8.9,1.291,6.754l.073-.491c.022.1.029.2.051.315a29.875,29.875,0,0,1,.352,5.727c-.044,1.6-.2,3.117-.345,4.451-1.078-.1-2.075-.176-3.007-.22-.469-.015-.924-.029-1.379-.015l-.88.022c-.308.022-.623.037-.931.051l.015-.359c-3.7.411-8.242.242-10.882,1.027-1.093-.007-2.581-.667-2.112-1.093-2.831.271-3.146.675-7.23.081,2.838-.631-.983-.565,2.911-.462-3.674-.315-4.51-.895-8.455.1,1.342-.931-2.765-1.166-4.51-.895l2.574.667a45.889,45.889,0,0,1-5.426-.029l.939-1.217c-3.754-.741-7.15-.11-10.317.4a29.934,29.934,0,0,1-4.6.477l-.557-.007-.711-.037c-.55-.029-1.107-.073-1.672-.139a33.908,33.908,0,0,1-3.674-.645c-1.32.425.44.572,2.061.741,1.665.169,3.175.359,2.031.858a58.619,58.619,0,0,1-7.223-.931,28.279,28.279,0,0,0-.99,4.891c-.088.961-.117,1.833-.117,2.6,0,.381.007.748.029,1.085.007.154.015.381.029.455s.029.183.044.271a8.218,8.218,0,0,0,.594,1.841,8.569,8.569,0,0,1,.741,4.774c.433-.638,1.6-1.232,2,2.471-.088,2.053-.719,3.175-1.283,3.278-.315.066-.609-.191-.777-.763a2.349,2.349,0,0,1-.11-.447c-.037-.829.1-1.225.249-1.2-.161-1.115-.345-2.581-.814-1.21l.433.447a13.628,13.628,0,0,0-.279,1.907c-.2,1.973-.315,4.268-.836,3.454.359,2.237.631,1.467.843-.022-.462,3.96.051,6.424-.345,10.713.242-.726.755-1.4.748-.675-.543,6.7.829,2.955,1.019,7.494-.667,2.581-1.584-.924-1.034,3.644-.447,2.794-1.151.594-1.5-.513a16.268,16.268,0,0,1,.015,5.749c-.022.125-.037.249-.059.367-.015.088-.029.183-.044.271l-.029.154c-.007.044-.015.037-.022.051l-.059.073a1.341,1.341,0,0,1-.22.2,2.189,2.189,0,0,0-.293.205,1.492,1.492,0,0,0-.264-.315.486.486,0,0,1,.117.374,2.726,2.726,0,0,0,.279.161,2.818,2.818,0,0,0,.594.227c-.147.213-.154.425-.44.161a.481.481,0,0,1-.088-.081,5.222,5.222,0,0,0,.909,1.034c.381.389.836.807.4,1.2a4.571,4.571,0,0,0-1.841-.073c-.154.007-.308.007-.455,0a5.857,5.857,0,0,1-.689-.081,1.227,1.227,0,0,1-.924-.528c.682.051,1.173.066,1.54.059.2,0,.271-.029.33-.081.1-.088.029-.257-.037-.433-.125-.3-.169-.638.051-.807a.431.431,0,0,1-.1.015.624.624,0,0,1-.191-.037c-.279-.022-.565-.051-.865-.081-.191-.132.183-.242.535-.308-.4-.081-.748-.139-1.056-.183a5.154,5.154,0,0,0-1.841,0c-1.335.315-1.049,1.481-4.832,1.459.675-.645-1.247-1.232-2.119-1.093,2.163.015,1.034,1.085-.946,1.584-3.439-.506-3.732.374-5.536.315l2.053.242c-.7.653-2.413.565-4.8.77-.066-.161.117-.249.381-.315-2.471.381-5.434-1.32-8.682-.689a.432.432,0,0,0-.1.015c-1.716-.44-.169-1.217-1.679-1.518-4.15.843-4.5-.895-8.866-.2,1.261.88,1.481.667-1.6,1.518l7.186-.616-4.612,1.269c2.171.015,4.576-.55,5.874-.4-2.2.711-1.973.491-.931,1.217-2.97-1.313-5.881.77-9.306-.117l.1-2.171a20.39,20.39,0,0,0-6.578.029l-.836.11-.418.051-.11.015-.169.015-.345.029c-.9.066-1.818.139-2.764.213-1.855.125-3.747.213-5.91.2-.007.968-.037,1.973-.088,3.021l.345-2.764.271.029a.3.3,0,0,1-.132.11,13.761,13.761,0,0,1,.308,4.15c0,.125-.007.257-.007.389v.007c-.015.689-.037,1.408-.044,2.127q0,.638.022,1.254c.007.205.022.4.029.6l.022.286.029.2c-.726-.205-.99,1.151-1.437,2.075.132-.029.2.264.242.726.044.191.066.425.117.7a3.877,3.877,0,0,0,1.034,2.024,1.814,1.814,0,0,1-.374.286,12.836,12.836,0,0,1-1.32-.579,2.117,2.117,0,0,0-1.335.154c-.1.044-.191.1-.286.147a.736.736,0,0,1-.242.081c-.1.029-.205.059-.3.088-.4.125-.785.257-1.159.389a12.892,12.892,0,0,1-5.6.961c1.562-.785-.8-1.3,2.684-1.863-1.738-.007-3.293-.139-3.322.359a1.492,1.492,0,0,0-.594-.088c-.873.007-2.273.345-3.557.5a6.024,6.024,0,0,1-1.855,0,1.567,1.567,0,0,1-.4-.117,2.215,2.215,0,0,0-.227.117,3.505,3.505,0,0,1-2.691.895.187.187,0,0,1-.051-.279c-.389.3-2.86.469-1.283,1.21-2.31-.975-5.412-1.078-8.572-1.034-4.143.051-8.374.359-11.014-.741-1.892.117-3.974.242-6.02.337-1.019.037-2.031.081-3,.117l-1.415.044c-.513.007-1,.022-1.474.029.147-.11.147-.2.227-.249a.921.921,0,0,1,.565-.037c-.132-.015-.22-.037-.381-.044s-.323-.022-.477-.037c-.308-.015-.594-.022-.858-.029a11.461,11.461,0,0,0-1.349.073,4.037,4.037,0,0,0-1.562.484,4.331,4.331,0,0,1-2.655,1,12.778,12.778,0,0,1-.117,2.361c-.293.638-.477.785-.6.572a4.321,4.321,0,0,1-.213-1.349c-.066-1.166-.044-2.486-.264-1.5-1.188-.528-1.107,2.273-.9,5.338.1,1.782.235,2.559.257,3.681a8.1,8.1,0,0,1-.418,3.014l-.139-.88c-.814,2.772.9,6.768.733,11.3,0,0-.213-.22-.359-.029,1.21,3.1,1.613,8.968,1.951,13.324-.931-1.357-.491-1.98-1.437-1.151.132,1.958,1.518-.572,1.782,3.329-.506,1.269-.953,4.084-1.965,4.458l-.059-3.681c-1.305,1.885.051,4.759-.176,6.7l-.572-.249c.183,5.639,1.621,5.72,1.518,11.777l.433-.623c1.43,3.315-.8,2.779.264,6.079l-1.452,1c.352,2.185,1.4,7.648,1.672,11.571-1.071-2.222-1.621-6.8-2.258-9.643-.007,2.163.11,7.362.821,8.492a7.654,7.654,0,0,1-.271-2.838,26.633,26.633,0,0,1,1.672,10.471c-.917-.249-1.313.865-1.5,2.6-.007.11-.022.22-.029.337-.007.161-.022.33-.029.5-.015.345-.029.7-.051,1.063-.015.733-.037,1.511-.059,2.3-.037,1.621-.073,3.322-.11,4.972,3.351.11,6.431.352,8.22,1.107l.6-.051.374-.044.719-.073q.715-.066,1.43-.11c.953-.066,1.907-.088,2.867-.1,1.914-.007,3.85.073,5.822.183,3.945.22,8.044.55,12.5.462-3.153-2.178,2.6-.059,2.053-2.3,2.053-.139,2.845-.1,3.036.037l-.3-.066c.11.029.2.051.315.081v-.007l6.277,1.335c1.489.653-1.973.491-1.782,1,4.539.176,1.907.953,4.906,1.547-.616-.8,1.577-1.151,4.165-.843l-3.644-1.034c6.343-1.2,5.485,1.885,11.872.7l-2.024.711c3.285-.418,12.1.015,15.318-1.789.579.257,1.349.873-.1,1.034,7.839.271,17.445-1.914,23.539-.807l-.594.55c1.459-.161,2.544-1.034,4.378-.484-.1.227-.594.55.088.579.77-.183,3.879-.961,5.822-.638l-1.657.616a36.6,36.6,0,0,0,11.674-.946,46.012,46.012,0,0,1,6.468-.931c-.015,1.613,6,2.141,9,2.4l-.11.227a79.7,79.7,0,0,0,10.684-.521c2.721-.3,5.36-.682,8.154-1h.007l.535-.066c.645-.073,1.305-.139,1.973-.205l.631-.066,1.386-.11a28.66,28.66,0,0,0,7.157,1.012c5.734.279,12.95.051,18.406.7-1.261-.293.205-1.261,1.665-1.423,1.811.308,4.92-.946,5.045.117a.711.711,0,0,1-.015.242l-.653-.029h-.037l.007.007c1.459,1.445,5.419,1.063,8.513,1.1l.506-1.936c8.1,2.816,21.229-1.034,25.651,1.489,1.958-.484,4.378-.477,6.314-.961l-.1,1.034a138.58,138.58,0,0,0,14.813.147l-1.364.748c3.776.066,4.766-3,8.257-3.058l1.041,1.547c6.592-.022,13.258,1.342,19.77-.066-.1.227-.3.675-1.364.741,3,.037,11.417.983,10.948-.88.719,1.049,6.908-.1,10.273-.675l-.55,1.019c1.5-.653,2.273-1.071,3.2-1.364a10.672,10.672,0,0,1,1.606-.374c.337-.051.66-.1,1.122-.147.557-.044,1.188-.088,1.9-.139,1.261.125,1.474.689-.007.609a9.488,9.488,0,0,0,3.307-.147,9.535,9.535,0,0,1,2.816-.447,18.794,18.794,0,0,1,.117-2.207c.22.851.44,1.753.653,2.706a24.875,24.875,0,0,0-.2-4.7c-.176-.939-.455-1.635-.829-2.933-.029-.176-.051-.367-.066-.565s-.029-.367-.044-.565c-.015-.323-.022-.675-.015-1.027a16.585,16.585,0,0,1,.213-2.178c.227-1.415.631-2.618,1.093-2.867a5.629,5.629,0,0,1-1.056-4.334c.352-.271.572.455.675.829.7-5.7-1.188-8.477-.183-12.393a.861.861,0,0,0,.609-.66c-.022,4.15-.073,7.553-.139,7.824.931-.051,1.1-3.637,2.391-.748C799.918,413.06,798.378,408.045,798.818,404.481Zm.829-7.59c.147,1.217-.059,1.621-.271,1.789-.015-.572-.051-1.247-.125-2.127-.037-.029-.081-.1-.125-.139a1.4,1.4,0,0,1,.521.477ZM757.673,229.069a1.615,1.615,0,0,1,.352.161H756.47c.374-.059.77-.11,1.2-.161Z" transform="translate(-241.912 -158.657)" fill="#dc4b4c"/>
    <path id="Path_88" data-name="Path 88" d="M655.292,362.622a.272.272,0,0,1-.183.088A.609.609,0,0,1,655.292,362.622Z" transform="translate(-282.311 -192.547)" fill="#7f77ff"/>
    <path id="Path_89" data-name="Path 89" d="M629.328,365.893c.057-.009.113-.023.17-.034C629.439,365.869,629.382,365.88,629.328,365.893Z" transform="translate(-275.852 -193.358)" fill="#7f77ff"/>
    <path id="Path_90" data-name="Path 90" d="M899.951,450.491a3.923,3.923,0,0,1-.075-.5c-.091.248-.168.483-.232.723l.323.429Z" transform="translate(-343.571 -214.435)" fill="#7f77ff"/>
    <path id="Path_91" data-name="Path 91" d="M742.448,281.78a1.039,1.039,0,0,1,.147-.339c-.05.108-.082.108-.123.177Z" transform="translate(-304.191 -172.21)" fill="#7f77ff"/>
    <path id="Path_92" data-name="Path 92" d="M810.672,227.7c.331.008.705.486.634,3.994l.221-4.311,1.62.078c-1.307-.4-3.466-.933-.478-1.029l-2.369-.277C810.053,228.221,810.341,227.707,810.672,227.7Z" transform="translate(-321.166 -158.36)" fill="#7f77ff"/>
    <path id="Path_93" data-name="Path 93" d="M810.634,251.893c-.093-.822-.237-.845-.387-.748s-.3.314-.416.212C810.194,252.33,810.285,252.8,810.634,251.893Z" transform="translate(-321.071 -164.611)" fill="#7f77ff"/>
    <path id="Path_94" data-name="Path 94" d="M715.437,293.438l.255-.938C713.736,292.635,715.674,292.863,715.437,293.438Z" transform="translate(-297.267 -174.981)" fill="#7f77ff"/>
    <path id="Path_95" data-name="Path 95" d="M512.354,155.7l.163-.013.3-.026,1.2-.1.854-.134-1.632.17-.816.085-1.333.085,1.005-.052Z" transform="translate(-128.038 -38.937)" fill="#7f77ff"/>
    <path id="Path_96" data-name="Path 96" d="M527.378,383.592l.591,1.155C529.291,384.54,529.569,383.242,527.378,383.592Z" transform="translate(-250.312 -197.786)" fill="#7f77ff"/>
    <path id="Path_97" data-name="Path 97" d="M494.947,462.512a5.506,5.506,0,0,0-.381,4.325C494.645,465.112,495.1,463.391,494.947,462.512Z" transform="translate(-242.023 -217.572)" fill="#7f77ff"/>
    <path id="Path_98" data-name="Path 98" d="M600.654,378.7l2.909-.322-1.366-.064Z" transform="translate(-150.474 -94.773)" fill="#7f77ff"/>
    <path id="Path_99" data-name="Path 99" d="M753.192,366.312a111.331,111.331,0,0,1-3.7,26.34c-8.888,32.852-33.2,56.757-46.308,67.69a28.66,28.66,0,0,1-7.157-1.012l-1.386.11-.631.066c-.667.066-1.327.132-1.973.205l-.535.066h-.007a166.457,166.457,0,0,1-9.071-34.325l-.007-.007v-.007c-2.266-15.047-2.633-32.7,2.141-50.348A109.741,109.741,0,0,1,693,353.523c17.042-33.072,46.513-52.775,46.513-52.775S754.072,330.659,753.192,366.312Z" transform="translate(-288.748 -177.047)" fill="#fff"/>
    <path id="Path_100" data-name="Path 100" d="M657.73,338.945c-.022.293-.044.565-.081.895A1.409,1.409,0,0,1,657.73,338.945Z" transform="translate(-282.938 -186.616)" fill="#fff"/>
    <path id="Path_101" data-name="Path 101" d="M629.552,365.785a4.037,4.037,0,0,0,.77-.227C630.858,365.7,630.124,365.689,629.552,365.785Z" transform="translate(-275.909 -193.283)" fill="#fff"/>
    <path id="Path_102" data-name="Path 102" d="M630.912,364.794l1.181.132a7.221,7.221,0,0,1-1.181-.132Z" transform="translate(-276.249 -193.092)" fill="#fff"/>
    <path id="Path_103" data-name="Path 103" d="M654.4,362.192a.63.63,0,0,0-.125-.022c.11-.015.22-.037.308-.044.015-.015.022-.022.029-.022s.007.007-.007.022-.007.015-.015.022S654.482,362.177,654.4,362.192Z" transform="translate(-282.103 -192.418)" fill="#fff"/>
    <path id="Path_104" data-name="Path 104" d="M655.292,362.622a.272.272,0,0,1-.183.088A.609.609,0,0,1,655.292,362.622Z" transform="translate(-282.311 -192.547)" fill="#fff"/>
    <path id="Path_105" data-name="Path 105" d="M687.547,430.234c0,.015-.007.029-.007.044a166.214,166.214,0,0,1-8.953,34l-.631.066c-.667.066-1.327.132-1.973.205l-.535.066h-.007c-2.794.315-5.434.7-8.154,1-12.972-10.728-37.816-34.832-46.813-68.123a110.926,110.926,0,0,1-3.71-26.347,134.953,134.953,0,0,1,.726-17.416c3.249-.631,6.211,1.071,8.682.689-.264.066-.447.154-.381.315,2.391-.205,4.106-.117,4.8-.77l-2.053-.242c1.8.059,2.1-.821,5.536-.315,1.98-.5,3.109-1.569.946-1.584.873-.139,2.794.447,2.119,1.093,3.784.022,3.5-1.144,4.832-1.459h1.841c.308.044.66.1,1.056.183-.352.066-.726.176-.535.308.3.029.587.059.865.081a.625.625,0,0,0,.191.037.431.431,0,0,0,.1-.015c-.22.169-.176.506-.051.807.066.176.139.345.037.433-.059.051-.132.081-.33.081-.367.007-.858-.007-1.54-.059a1.228,1.228,0,0,0,.924.528,5.856,5.856,0,0,0,.689.081c.147.007.3.007.455,0a4.571,4.571,0,0,1,1.841.073c.433-.389-.022-.807-.4-1.2a5.224,5.224,0,0,1-.909-1.034.484.484,0,0,0,.088.081c.286.264.293.051.44-.161a2.818,2.818,0,0,1-.594-.227h.535v-1.173c.022-.117.037-.242.059-.367a16.268,16.268,0,0,0-.015-5.749c.352,1.107,1.056,3.307,1.5.513-.55-4.568.367-1.063,1.034-3.644-.191-4.539-1.562-.792-1.019-7.494.007-.726-.506-.051-.748.675.4-4.29-.117-6.754.345-10.713-.213,1.489-.484,2.259-.843.022.521.814.638-1.481.836-3.454l.521.5c.257.249.521.506.777.763,9.137,8.968,19.85,21.522,27.821,37.031l.005,0a.007.007,0,0,1,0,.005,109.058,109.058,0,0,1,8.448,21.559C690.165,397.559,689.806,415.187,687.547,430.234Z" transform="translate(-272.696 -181.888)" fill="#fff"/>
    <path id="Path_106" data-name="Path 106" d="M575.246,379.852a1.806,1.806,0,0,1-.455.653C575.011,380.021,575.136,379.874,575.246,379.852Z" transform="translate(-262.19 -196.864)" fill="#3f3d56"/>
    <path id="Path_107" data-name="Path 107" d="M549.793,385.752a.1.1,0,0,1-.059.081C549.764,385.788,549.793,385.752,549.793,385.752Z" transform="translate(-255.913 -198.342)" fill="#3f3d56"/>
    <path id="Path_108" data-name="Path 108" d="M655.906,477.342l-.535.066h-.007c-2.794.315-5.434.7-8.154,1a79.7,79.7,0,0,1-10.684.521l.11-.227c-3.006-.257-9.02-.785-9-2.4a46.012,46.012,0,0,0-6.468.931c-15.861-5.162-34.333-13.9-49.446-28.613-21.3-20.73-30.916-48.427-35.132-66.275,3.161-.044,6.262.059,8.572,1.034-1.577-.741.895-.909,1.283-1.21a.187.187,0,0,0,.051.279,3.506,3.506,0,0,0,2.691-.895h6.035v-.5a1.493,1.493,0,0,1,.594.088c.029-.5,1.584-.367,3.322-.359-3.483.565-1.122,1.078-2.684,1.863a12.892,12.892,0,0,0,5.6-.961c.374-.132.755-.264,1.159-.389.1-.029.2-.059.3-.088a.737.737,0,0,0,.242-.081c.1-.051.191-.1.286-.147a2.117,2.117,0,0,1,1.335-.154,12.84,12.84,0,0,0,1.32.579,1.815,1.815,0,0,0,.374-.286,3.877,3.877,0,0,1-1.034-2.024c-.051-.279-.073-.513-.117-.7-.044-.462-.11-.755-.242-.726.447-.924.711-2.281,1.437-2.075l-.029-.2-.022-.286c-.007-.2-.022-.4-.029-.6q-.022-.616-.022-1.254c.007-.719.029-1.437.044-2.127a144.509,144.509,0,0,1,29.632,12.811,111.425,111.425,0,0,1,21.948,16.477c13.229,12.877,21.948,28.437,27.653,42.656v.007l.007.007a166.127,166.127,0,0,1,9.613,34.259Z" transform="translate(-252.619 -194.677)" fill="#3f3d56"/>
    <path id="Path_109" data-name="Path 109" d="M743.233,513.169h.037a.055.055,0,0,1-.029.007Z" transform="translate(-304.387 -230.262)" fill="#3f3d56"/>
    <path id="Path_110" data-name="Path 110" d="M820.816,362.231s-4.165,50.993-38.234,84.16C767.33,461.24,748.667,470,732.711,475.144c-.125-1.063-3.234.191-5.045-.117-1.459.161-2.926,1.129-1.665,1.423-5.456-.653-12.671-.425-18.406-.7a28.66,28.66,0,0,1-7.157-1.012l-1.386.11-.631.066a166.649,166.649,0,0,1,9.591-34.113c5.72-14.2,14.439-29.75,27.645-42.6a111.275,111.275,0,0,1,21.948-16.477C788.126,364.013,820.816,362.231,820.816,362.231Z" transform="translate(-293.162 -192.449)" fill="#3f3d56"/>
    <path id="Path_111" data-name="Path 111" d="M212.464,322.964s-10.213,20.427-26,25.069,38.068,0,38.068,0-2.785-14.856.928-16.713S212.464,322.964,212.464,322.964Z" transform="translate(-164.183 -182.612)" fill="#a0616a"/>
    <path id="Path_112" data-name="Path 112" d="M199.641,272.924c-.555-4.84,2.092-9.119,5.913-9.557.043,0,.086,0,.129-.007a5.577,5.577,0,0,0-1.442-.024c-3.821.438-6.468,4.717-5.913,9.557.549,4.785,4.024,8.32,7.795,7.976C202.889,280.4,200.126,277.146,199.641,272.924Z" transform="translate(-167.862 -167.666)" fill="#2f2e41"/>
    <path id="Path_113" data-name="Path 113" d="M202.333,281.705c-4.614-1.562-7.355-5.782-6.121-9.425.014-.041.034-.079.049-.12a5.58,5.58,0,0,0-.637,1.294c-1.234,3.643,1.507,7.862,6.121,9.425,4.562,1.545,9.241-.09,10.539-3.647C210.48,281.958,206.359,283.069,202.333,281.705Z" transform="translate(-167.129 -169.885)" fill="#2f2e41"/>
    <path id="Path_114" data-name="Path 114" d="M162.076,401.6l1.365,39.327L184.8,491.071s-5.571,26,5.571,25.069.928-26,.928-26l-10.213-52.924-1.857-43.639Z" transform="translate(-158.798 -200.302)" fill="#a0616a"/>
    <circle id="Ellipse_20" data-name="Ellipse 20" cx="20.427" cy="20.427" r="20.427" transform="translate(42.711 113.425)" fill="#a0616a"/>
    <path id="Path_115" data-name="Path 115" d="M239.407,358.68l-20.131-8.042s-4.01.614-15.152,1.543-16.089.053-16.089.053-23.836,8.3-22.908,12.946,11.142,77.994,15.784,74.28,7.428-4.642,7.428-4.642l51.067-4.642Z" transform="translate(-159.556 -189.545)" fill="#cfcce0"/>
    <path id="Path_116" data-name="Path 116" d="M166.987,367.562h-3.022s-3.478,1.857-3.478,7.428-2.785,22.284-2.785,22.284h14.856Z" transform="translate(-157.702 -193.785)" fill="#cfcce0"/>
    <path id="Path_117" data-name="Path 117" d="M198.124,372.2,186.91,354.086a2.534,2.534,0,0,0-2.469-1.181l-2.924.366a2.534,2.534,0,0,0-2.133,3.174l5.742,21.328s9.079,37.678.361,57.836l-.361,9.016s-8.356,27.855-6.5,49.21,2.785,39.925,2.785,39.925-4.642,13.927-2.785,18.57a10.859,10.859,0,0,1,.017,5.657,187.469,187.469,0,0,0-2.924,40.9l.122,4.51s-6.5,5.571-.928,6.5,23.212,2.786,23.212,2.786,3.714-6.5,1.857-7.428l5.571-30.641s9.285-13,8.356-21.355c0,0,2.785-13.927,0-20.427l.928-40.854,3.714,49.21L212.98,602.47s-7.428,5.571-2.785,7.428,33.426,11.142,33.426,6.5-1.857-6.5-1.857-6.5l12.07-125.347-6.5-52s-43.639-3.714-39.925-52.924c0,0,10.676-22.174,21.216-26.358a.606.606,0,0,0-.044-1.151L224.3,350.9a.587.587,0,0,0-.356.007C222.09,351.534,205.992,357.341,198.124,372.2Z" transform="translate(-161.448 -189.604)" fill="#2f2e41"/>
    <path id="Path_118" data-name="Path 118" d="M231.337,695.238l-.148,1.335a61.456,61.456,0,0,1-8.119,24.084c-2.079,3.573-3.671,7.609-2.875,10.793,1.857,7.428.928,10.214.928,10.214h14.856v-2.785l8.294,2.262a9.188,9.188,0,0,0,5.633-.173c1.857-.7,3.714-2.089,3.714-4.875,0-2.321-1.773-4.481-3.842-6.211a27.578,27.578,0,0,1-9.053-13.834l-.1-.381,5.571-20.427Z" transform="translate(-173.306 -275.873)" fill="#2f2e41"/>
    <path id="Path_119" data-name="Path 119" d="M179.924,695.858l-.148,1.335a61.456,61.456,0,0,1-8.119,24.084c-2.079,3.573-3.671,7.609-2.875,10.793,1.857,7.428.928,10.214.928,10.214h14.856V739.5l8.294,2.262a9.188,9.188,0,0,0,5.633-.173c1.857-.7,3.714-2.089,3.714-4.875,0-2.321-1.773-4.481-3.842-6.211a27.579,27.579,0,0,1-9.053-13.834l-.1-.381,5.571-20.427Z" transform="translate(-160.426 -276.029)" fill="#2f2e41"/>
    <path id="Path_120" data-name="Path 120" d="M234.181,307.662s14.633-8.454,20.3-8.966a9.324,9.324,0,0,0-.129-7.288s-.863-11.466-15.176-11.021c0,0-16.905-9.158-22.58-5.419s-18.312,21.68-12.974,32.4c0,0-6.17,3.1-6.464,1.433s-4.878,2.818,1.174,6.685c0,0-8.471,8.576-.237,13.943,0,0-.377-7.606,4.4-9.905s.6.116.6.116-8.178,10.247,4.036,14.235c0,0-4.558-5.19.026-9.679,0,0-1.42,10.484,7.025,11.588,0,0-4.356-6.227-2.064-8.472,0,0,.973,7.722,5.741,8.649l3.576.7,1.21-6.221s-3.4,7.947,4.549,8.417c0,0-3.843-12.046,1.245-19.127S234.181,307.662,234.181,307.662Z" transform="translate(-166.92 -170.364)" fill="#2f2e41"/>
    <ellipse id="Ellipse_21" data-name="Ellipse 21" cx="8.821" cy="6.964" rx="8.821" ry="6.964" transform="matrix(0.604, -0.797, 0.797, 0.604, 28.121, 109.752)" fill="#2f2e41"/>
    <path id="Path_121" data-name="Path 121" d="M217.623,277.771a10.31,10.31,0,0,0-4.631,3.5,10.5,10.5,0,0,0-2.03,4.649,10.311,10.311,0,0,0,4.631-3.5,10.5,10.5,0,0,0,2.03-4.65Z" transform="translate(-171.045 -171.291)" fill="#dc4b4c"/>
    <path id="Path_122" data-name="Path 122" d="M314.042,490.135l-1.179-1.574,8.561-6.415a7.234,7.234,0,0,0,2.835-6.662l-4.241-34.248a14.255,14.255,0,0,1,5.586-13.13l9.331-6.992a8.346,8.346,0,0,1,11.671,1.672l2.161,2.884-1.574,1.179-2.161-2.884a6.377,6.377,0,0,0-8.918-1.278l-9.331,6.992a12.284,12.284,0,0,0-4.814,11.314l4.241,34.248a9.2,9.2,0,0,1-3.607,8.477Z" transform="translate(-196.573 -206.784)" fill="#cfcce0"/>
    <path id="Path_123" data-name="Path 123" d="M143.583,377.81l6.98-9.192-2.359-3.147-10.465,4.54L92.055,401.579l8.087,10.792Z" transform="translate(-23.061 -91.557)" fill="#cfcce0"/>
    <rect id="Rectangle_59" data-name="Rectangle 59" width="21.915" height="79.089" rx="7.272" transform="translate(140.251 223.8) rotate(-36.846)" fill="#e6e6e6"/>
    <path id="Path_124" data-name="Path 124" d="M420.783,494.719l-1.264-1.686-.253-.337a5.449,5.449,0,0,1-1.093,7.629l-8.815,6.606a5.449,5.449,0,0,1-7.629-1.093l.253.337,1.264,1.686a5.449,5.449,0,0,0,7.629,1.093l8.815-6.606A5.449,5.449,0,0,0,420.783,494.719Z" transform="translate(-218.835 -225.133)" opacity="0.2"/>
    <path id="Path_125" data-name="Path 125" d="M392.215,447.293c-.077-.075-.141-.136-.143-.1C392.145,447.279,392.193,447.3,392.215,447.293Z" transform="translate(-216.416 -213.731)" fill="#7f77ff"/>
    <path id="Path_126" data-name="Path 126" d="M390.387,444.366a.2.2,0,0,0-.077-.131Z" transform="translate(-215.975 -212.993)" fill="#7f77ff"/>
    <path id="Path_127" data-name="Path 127" d="M403.708,462.861c-.082.026.075.2.178.368Z" transform="translate(-219.325 -217.659)" fill="#7f77ff"/>
    <path id="Path_128" data-name="Path 128" d="M409.47,470.267l.073.1a.668.668,0,0,0,.141.021Z" transform="translate(-220.775 -219.514)" fill="#7f77ff"/>
    <path id="Path_129" data-name="Path 129" d="M413.107,475.669a.368.368,0,0,1,.266.114.265.265,0,0,0,.088-.131C413.4,475.555,413.207,475.649,413.107,475.669Z" transform="translate(-221.686 -220.852)" fill="#7f77ff"/>
    <path id="Path_130" data-name="Path 130" d="M424.375,491.361l-.041.071a.556.556,0,0,0,.084.085Z" transform="translate(-224.498 -224.799)" fill="#7f77ff"/>
    <path id="Path_131" data-name="Path 131" d="M386.84,439l.009.019C386.943,439.107,386.9,439.054,386.84,439Z" transform="translate(-215.105 -211.682)" fill="#7f77ff"/>
    <path id="Path_132" data-name="Path 132" d="M353.786,449.685c-.142-.5.67.491.4-.223C354.158,449.566,353.519,449.124,353.786,449.685Z" transform="translate(-206.808 -214.285)" fill="#7f77ff"/>
    <path id="Path_133" data-name="Path 133" d="M378.042,427.549a.309.309,0,0,0-.008.144C378.049,427.677,378.055,427.641,378.042,427.549Z" transform="translate(-212.898 -208.813)" fill="#7f77ff"/>
    <path id="Path_134" data-name="Path 134" d="M373.33,424.235a1.2,1.2,0,0,0-.31.279.212.212,0,0,0,.057-.019.687.687,0,0,1,.253-.26Z" transform="translate(-211.643 -207.983)" fill="#7f77ff"/>
    <path id="Path_135" data-name="Path 135" d="M368.854,428.506a.806.806,0,0,0,.088-.022l.095-.1Z" transform="translate(-210.599 -209.022)" fill="#7f77ff"/>
    <path id="Path_136" data-name="Path 136" d="M405.656,474.455c-.116.141-.344.324-.446.263l.2-.363c-.015-.017-.028-.036-.041-.054l.039-.05-2.911-3.884.076,0-.134-.082-.369-.492c.047-.01.107,0,.195.091-.15-.457-.331-.256-.428-.673,0-.051.019-.044.053-.019l-.341-.3c.1.031.132-.191.26.055-.335-.747-.96-.891-.951-1.274l.055.042c-.56-.616-.422-.283-.614-.286l-.311-.415.08-.539-.248.05c-.062-.1-.184-.288-.086-.309-.381-.247-.036.118-.3.009-.163-.566-.988-1.157-.771-1.474-.258-.054.208.5-.241.1.213-.369-.461-.5-.619-1.014.255,0,.455.448.3-.063-.456-.038-.527-.829-.834-1.129-.23.147-.644-.67-1.144-1.185a15.775,15.775,0,0,0-1-1.751l.048-.012c-.3.062-.665-.516-1.009-.879.143-.083.249-.05.47.121l-.281-.373a1.012,1.012,0,0,1-.469-.348l.235-.029a8.943,8.943,0,0,1-1.316-1.581c-.123.054-.1.409-.268.449l-.254-.339a.191.191,0,0,1,.221.053c-.054-.05-.224-.155-.276-.3l.343.166c-.157-.338-.231-.065-.393-.308.122-.084-.045-.236.074-.273.056.051.1.24.217.295a1.955,1.955,0,0,1-.333-.822c-.05.073-.159.12-.319-.062-.382-.492.015-.277-.142-.613-.173-.059-.326-.441-.509-.316-.108-.146-.046-.235-.04-.327-.271-.2-.925-1.187-.9-.756l.037.075-.039-.036a27.982,27.982,0,0,1-1.919-2.612l.06-.043a12.054,12.054,0,0,0-1.27-1.346c-.111-.148-.154-.43-.036-.42a2.747,2.747,0,0,1-.746-.968c.392.307-.008-.2.371.337-.321-.535-.311-.719-.873-1.131.288.068-.089-.517-.312-.72l.153.43a6.38,6.38,0,0,1-.546-.737l.3-.022c-.519-1.2-1.788-1.525-1.962-2.6-.341-.164.316.626-.028.508a8.363,8.363,0,0,1-.512-1.337c-.37-.724-.74-.38-1.167-1.107-.007.139-.136.362-.579-.089-.325-.488-.133-.8.146-.546.09.108.108.179.08.192.139.132.318.308.257.064l-.117-.007c-.1-.287-.592-.925-.362-.861-.333-.3-.23-.064-.071.226-.347-.678-.7-.941-1.094-1.611.034.128.019.281-.054.182-.591-.973-.434-.3-.926-.889-.153-.43.353-.069-.2-.619-.209-.433.129-.221.3-.115a4.331,4.331,0,0,1-.915-1.461l.28.254a2.872,2.872,0,0,1-.386-.446l-.015.276c-.106-.193-.216-.341-.154-.382-.228-.11-.134.315-.528.054-.1-.286-.608-.649-.479-.871.483.779.129-.223.623.373a1.7,1.7,0,0,1-.326-.442c0-.042.058,0,.1.035-.355-.826-.454-.161-.993-.889.175.012.076-.319-.035-.42.217.294-.073.273-.355.066-.265-.527-.44-.459-.613-.709l.169.307c-.177-.014-.337-.257-.613-.556.062-.09.277.251.227.108-.457-.219-.415-.958-.917-1.365-.1-.286.183-.172.079-.413-.559-.459-.31-.718-.867-1.223-.016.277.042.281-.409-.03l.828.9-.675-.467c.218.295.553.551.661.745-.339-.209-.281-.206-.294.024-.086-.562-.721-.7-.923-1.274l.365-.251c-.364-.815-1.11-1.1-1.7-2.074l.156.337c-.232-.016-.438-.544-.715-.794.139-.062.045-.277.025-.457-.076.081-.488-.668-.786-.573l-.147-.521c-.45-.733-1.054-.7-1.641-1.571.123.031.12-.084.143-.156s.078-.089.385.225c-.279-.375-.53-.755-.552-.614a.654.654,0,0,0-.075-.131l-.052-.067c-.019-.02-.043.037-.067.055l-.316.389a2.075,2.075,0,0,1-.594.6c-.1.193-.07.376-.375.657-.052.009-.045-.058-.045-.058.014.092-.328.451-.008.374-.967.288-1.809,1.752-2.662,1.977-.439.462-.983,1-1.416,1.387,0-.058-.047-.057.046-.117-.692.414-.093.646-.892,1.11-.509.112.288-.408.008-.292-.407-.294-.8.753-1.455.908l.1-.114c-.463.164-.771.852-1.4,1.286,0,0,0-.057-.041-.061a7.19,7.19,0,0,1-1.564,1.651c.076-.287.213-.275-.013-.351-.252.212.26.2-.245.621-.234.039-.673.238-.843.1l.5-.362c-.408-.033-.649.462-.945.606l-.031-.12c-.757.563-.612.807-1.478,1.344l.136.018c-.315.547-.483.107-.841.584l-.3-.165a14.373,14.373,0,0,1-1.5,1.276,9.274,9.274,0,0,1,1.167-1.209,4.149,4.149,0,0,0-1.142.86c.113-.1.235-.254.383-.286a3.535,3.535,0,0,1-1.378,1.16c-.053-.294-.683-.009-1.447.364l-.288.141-.147.072c-.047.024-.125.042-.062.092.117.168.23.334.33.493a2.3,2.3,0,0,1,.37.827l.48.546c.106.122.208.247.306.376.2.258.378.53.56.81.364.561.726,1.156,1.19,1.747.037-.694.273.344.585,0,.23.259.3.37.3.414l-.028-.069.028.074h0l.417,1.012c.044.281-.281-.206-.344-.119.432.635.037.374.244.853.069-.182.348.073.56.46l-.2-.619c.838.711.248.972,1.089,1.691l-.32-.187c.4.393,1.224,1.638,1.844,1.852.016.11-.006.289-.179.114.75,1.093,2.082,2.125,2.518,3.085l-.15-.013c.174.178.427.218.522.533-.047.015-.149-.013-.086.083a2.523,2.523,0,0,1,.695.709l-.269-.148c.657,1.122,1.435,1.4,2.146,2.224-.266.2.258,1.074.52,1.512l-.048.014a29.087,29.087,0,0,0,2.691,2.919c.232.907,1.637,2.435,2.31,3.667-.079-.206.227-.126.4.051.142.3.724.584.451.724l-.065-.1c-.09.375.375.864.683,1.288l.368-.168c.36,1.441,2.321,2.744,2.356,3.651.277.2.522.533.8.736l-.18.113a19.425,19.425,0,0,0,1.477,2.022l-.26-.094c.372.519.973.278,1.336.742l-.147.332a13.226,13.226,0,0,0,2.015,2.665c-.048.013-.141.042-.259-.095.308.424,1.044,1.751,1.278,1.338-.219.18.667.936,1.127,1.342l-.223.05a2.317,2.317,0,0,1,1.07.738c.079.151-.046.218-.137.008.248.514.42.23.738.84l-.258-.122a1.119,1.119,0,0,0,.677.551c.284.24.613.906.513,1.087a.836.836,0,0,1,.611.457c-.03.079-.139.007-.194-.03.464.856,1.053,1,1.286,1.653a.16.16,0,0,0-.033.164c-.455-.615-.815-1.115-.768-1.078-.154.115.189.63-.318.4a5.25,5.25,0,0,1,1.463,1.336.275.275,0,0,1-.005.1l-.055-.037a.925.925,0,0,0,.253.286,3.043,3.043,0,0,0,.253.434c-.085.152.356.619.535.87.153-.147.368.2.281-.21.017.048-.055-.031-.185-.19a.681.681,0,0,0-.1-.092l.027.006-.471-.6a1.058,1.058,0,0,1,.567.623c.2.045.419.1.53.14.018.514.378,1.259.3,1.458.329.341.677.773,1.027,1.149a6.751,6.751,0,0,0,.535.519,1.962,1.962,0,0,0,.614.445.679.679,0,0,1,.193.334c.03.11.077.1.132.129a.718.718,0,0,1-.17.075l-.112-.122a.744.744,0,0,0-.191-.169c.148.1.249.462.538.233l.745-.3a2.508,2.508,0,0,0,.494-.25c.107-.075.176-.149.182-.225.678-.136-.267.38.59-.01l-.087.126c1.915-.288,2.474-1.806,4.51-2.3-.142.038-.212.058-.26.032,2.184-.92,3.912-2.763,5.905-3.945.556-.359.483-.552.689-.916l.257.072.326-.65c.553-.8,1.591-.776,2.167-1.925l-.22.011c.326-.3.855-1.095.942-.922a.274.274,0,0,1,.149-.288l.1.067c.186-.314.357-.639.534-.957.592-.593.292.408,1.067-.541C405.551,475.21,405.824,474.366,405.656,474.455Zm-4.027-5.3a.192.192,0,0,1,.007.064l-.149-.2C401.533,469.059,401.579,469.1,401.629,469.15ZM383.45,484.266l.035,0a.26.26,0,0,1-.133,0c-.147-.146-.155-.226-.137-.274.061.075.135.162.235.272Z" transform="translate(-205.577 -207.72)" fill="#dc4b4c"/>
    <path id="Path_137" data-name="Path 137" d="M395.466,504.828a.565.565,0,0,1,.063.058,1.184,1.184,0,0,0-.035-.126l-.1-.018Z" transform="translate(-217.249 -228.151)" fill="#7f77ff"/>
    <path id="Path_138" data-name="Path 138" d="M404.047,463.543a.163.163,0,0,1,.01.064.176.176,0,0,1,0-.039Z" transform="translate(-219.416 -217.83)" fill="#7f77ff"/>
    <path id="Path_139" data-name="Path 139" d="M416.564,479.9c-.409-.951-.021.275-.622-.581l.43.675C416.353,479.832,416.331,479.62,416.564,479.9Z" transform="translate(-222.396 -221.781)" fill="#7f77ff"/>
    <path id="Path_140" data-name="Path 140" d="M414.2,476.422c-.222-.173-.277-.215-.142.084C414.35,476.827,414.154,476.431,414.2,476.422Z" transform="translate(-221.907 -221.022)" fill="#7f77ff"/>
    <path id="Path_141" data-name="Path 141" d="M399.775,457.418l.179-.08C399.733,457.089,399.893,457.38,399.775,457.418Z" transform="translate(-218.346 -216.25)" fill="#7f77ff"/>
    <path id="Path_142" data-name="Path 142" d="M238.136,315.669l-.387-.4.278.3Z" transform="translate(-59.56 -78.98)" fill="#7f77ff"/>
    <path id="Path_143" data-name="Path 143" d="M369.449,427.626l.232.107C369.816,427.551,369.671,427.325,369.449,427.626Z" transform="translate(-210.749 -208.795)" fill="#7f77ff"/>
    <path id="Path_144" data-name="Path 144" d="M355.226,438.736a4.511,4.511,0,0,0,.655-.317A.8.8,0,0,0,355.226,438.736Z" transform="translate(-207.185 -211.536)" fill="#7f77ff"/>
    <path id="Path_145" data-name="Path 145" d="M217.624,343.108l.347.354-.127-.192Z" transform="translate(-54.518 -85.954)" fill="#7f77ff"/>
    <path id="Path_146" data-name="Path 146" d="M247.556,397.888l1.365,39.327,21.355,50.139s-5.571,26,5.571,25.069.928-26,.928-26L266.563,433.5l-1.857-43.639Z" transform="translate(-180.212 -199.371)" fill="#a0616a"/>
    <path id="Path_147" data-name="Path 147" d="M97.243,226.974l.51-3.508,4.132,1.651,13,20.426L87.958,259.471Z" transform="translate(-22.035 -55.982)" fill="#cfcce0"/>
  </g>
</svg>
